{"title":"Shanghai 2010 720p BRRip.x264.Feel-Free","uid":6080548,"size":2094084466,"categoryP":"video","categoryS":"hd___movies","magnet":"?xt=urn:btih:360b54072d8551bb60e47ec1a2db1daad59d3621&amp;dn=Shanghai+2010+720p+BRRip.x264.Feel-Free&amp;tr=udp%3A%2F%2Ftracker.openbittorrent.com%3A80&amp;tr=udp%3A%2F%2Fopen.demonii.com%3A1337&amp;tr=udp%3A%2F%2Ftracker.coppersurfer.tk%3A6969&amp;tr=udp%3A%2F%2Fexodus.desync.com%3A6969","seeders":0,"leechers":1,"uploader":"neon","files":-1,"time":1294098515,"description":"Genre:Drama | Mystery | Romance\nLanguage:English\n &lt;a href=&quot; http://www.imdb.com/title/tt1092634/&quot; rel=&quot;nofollow&quot; target=&quot;_NEW&quot;&gt; http://www.imdb.com/title/tt1092634/&lt;/a&gt;\nSource:1080p.BluRay.x264-aBD\nSubtitles:Romana\n\n\nFormat : Matroska\nFile size : 1.95 GiB\nDuration : 1h 44mn\nOverall bit rate : 2 670 Kbps\n\n\nVideo\nFormat settings, CABAC : Yes\nFormat settings, ReFrames : 4 frames\nCodec ID : V_MPEG4/ISO/AVC\nDuration : 1h 44mn\nBit rate : 2 233 Kbps\nNominal bit rate : 2 400 Kbps\nWidth : 1 280 pixels\nHeight : 720 pixels\nDisplay aspect ratio : 16:9\nFrame rate mode : Variable\nFrame rate : 23.976 fps\nColor space : YUV\nChroma subsampling : 4:2:0\nBit depth : 8 bits\nScan type : Progressive\nBits/(Pixel*Frame) : 0.101\nStream size : 1.63 GiB (84%)\nWriting library : x264\n\n\nAudio\nID : 2\nFormat : AC-3\nFormat/Info : Audio Coding 3\nMode extension : CM (complete main)\nCodec ID : A_AC3\nDuration : 1h 44mn\nBit rate mode : Constant\nBit rate : 384 Kbps\nChannel(s) : 6 channels\nChannel positions : Front: L C R, Side: L R, LFE\nSampling rate : 48.0 KHz\nBit depth : 16 bits\nVideo delay : -1mn 5s\nStream size : 287 MiB (14%)\nLanguage : English\n\n\nPlot:\nA '40s period piece which revolves around an American expat who returns to Shanghai in the months before Pearl Harbor due to the death of his friend\n &lt;a href=&quot;\nhttp://shareimage.org/images/hi3nbzfurvjosd4mc3wm.png&quot; rel=&quot;nofollow&quot; target=&quot;_NEW&quot;&gt;\nhttp://shareimage.org/images/hi3nbzfurvjosd4mc3wm.png&lt;/a&gt; &lt;a href=&quot;\nhttp://shareimage.org/images/z3o4878gfswhlznvbkls.png&quot; rel=&quot;nofollow&quot; target=&quot;_NEW&quot;&gt;\nhttp://shareimage.org/images/z3o4878gfswhlznvbkls.png&lt;/a&gt; &lt;a href=&quot;\nhttp://shareimage.org/images/z2x6702pyjx4sejxdih.png&quot; rel=&quot;nofollow&quot; target=&quot;_NEW&quot;&gt;\nhttp://shareimage.org/images/z2x6702pyjx4sejxdih.png&lt;/a&gt; &lt;a href=&quot;\nhttp://shareimage.org/images/9eciq85vfnk55m40txek.png&quot; rel=&quot;nofollow&quot; target=&quot;_NEW&quot;&gt;\nhttp://shareimage.org/images/9eciq85vfnk55m40txek.png&lt;/a&gt;","torrent":{"xt":"urn:btih:360b54072d8551bb60e47ec1a2db1daad59d3621","amp;dn":"Shanghai+2010+720p+BRRip.x264.Feel-Free","amp;tr":["udp%3A%2F%2Ftracker.openbittorrent.com%3A80","udp%3A%2F%2Fopen.demonii.com%3A1337","udp%3A%2F%2Ftracker.coppersurfer.tk%3A6969","udp%3A%2F%2Fexodus.desync.com%3A6969"],"infoHash":"360b54072d8551bb60e47ec1a2db1daad59d3621","infoHashBuffer":{"type":"Buffer","data":[54,11,84,7,45,133,81,187,96,228,126,193,162,219,29,170,213,157,54,33]},"announce":[],"urlList":[]}}